<?xml version="1.0" encoding="UTF-8"?>
<svg id="Layer_1" xmlns="http://www.w3.org/2000/svg" viewBox="0 0 1920 478">
  <g>
    <path d="M307.53,34.48c-.73-1.16-2-1.87-3.38-1.87h-130.87c-9.93,0-18.95.75-27.56,2.3-30.3,5.45-54.88,19.12-73.05,40.64-13.4,15.87-23.1,35.64-28.83,58.78-7.74,31.28-4.45,63.62,9.27,91.05,17.28,34.56,45.96,53.25,66.98,62.85,16.26,7.42,30.33,10.67,37.3,11.95,1.82.43,3.47.68,4.88.75.07,0,.14,0,.21,0,2.05,0,3.79-1.58,3.96-3.65.18-2.14-1.37-4.04-3.51-4.29-.11-.01-1.86-.23-4.87-.82-8.57-2.27-21.82-9.28-31.66-21.13-10.84-13.03-15.15-28.62-12.82-46.32,2-15.2,8.39-27.98,18.97-37.99,11.95-11.29,28.04-17.51,45.32-17.51h63.48c1.52,0,2.91-.87,3.58-2.24l62.79-128.65c.6-1.23.53-2.69-.2-3.86ZM238.87,161.26h-60.99c-19.32,0-37.36,6.99-50.79,19.69-11.95,11.3-19.15,25.68-21.4,42.74-1.24,9.39-.72,18.42,1.45,26.88-3.74-4.41-7.07-8.86-10.01-13.1-1.12-5.77-7.23-42.26,11.38-66.62,10.71-14.01,27.86-21.64,50.99-22.68h85.75l-6.39,13.09ZM278.07,80.95h-104.78c-7.04,0-13.25.5-19.01,1.54-34.13,6.14-54.31,26.3-63.51,63.46-.01.04-.02.08-.03.12-.23,1.06-5.49,26.19-2.59,56.42-.9,6.98-1.02,13.61-.78,19.3-3.52-6.31-5.38-10.48-5.43-10.6-.03-.06-.06-.13-.09-.19-10.3-20.6-12.72-45.09-6.81-68.96,10.62-42.91,36.32-68.31,76.37-75.52,6.7-1.21,13.86-1.79,21.87-1.79h112.69l-7.91,16.2ZM263.74,110.33h-81.03c-1.31-.05-13.52-.35-27.36,4.4-18.79,6.46-31.72,19.26-37.54,37.07-6.06,3.82-11.28,8.55-15.61,14.22-2.71,3.55-4.96,7.3-6.81,11.15.57-16.58,2.95-28.45,3.14-29.37,8.36-33.7,26.53-51.96,57.17-57.47,5.28-.95,11.04-1.41,17.6-1.41h100.9l-10.45,21.41ZM249.15,140.21h-89.73c-.06,0-.12,0-.18,0-11.5.51-21.69,2.55-30.55,6.07,15.26-29.24,52.04-28.06,53.74-27.99.06,0,.12,0,.18,0h77.22l-10.7,21.91ZM289.87,56.78h-116.58c-8.49,0-16.11.63-23.28,1.92-43.43,7.81-71.25,35.21-82.7,81.44-6.36,25.67-3.74,52.07,7.38,74.34,1.06,2.41,15.57,34.51,42.37,57.42,1.02,1.44,2.08,2.86,3.23,4.24,1.69,2.03,3.46,3.93,5.29,5.7-22.24-9.78-49.18-27.71-65.34-60.03-12.87-25.74-15.95-56.13-8.66-85.58,9.02-36.44,32.92-82.23,95.56-93.5,8.14-1.46,16.69-2.17,26.15-2.17h124.49l-7.91,16.21Z"/>
    <path d="M208.04,198.42c-16.25-7.42-30.33-10.67-37.3-11.95-1.82-.43-3.47-.68-4.88-.75-2.13-.1-4,1.5-4.18,3.64-.18,2.14,1.37,4.04,3.51,4.29.11.01,1.82.23,4.77.8,8.57,2.24,21.87,9.26,31.76,21.15,10.84,13.03,15.15,28.62,12.81,46.33-2,15.2-8.39,27.98-18.97,37.99-11.95,11.29-28.04,17.51-45.32,17.51h-63.48c-1.52,0-2.91.87-3.58,2.24l-62.79,128.65c-.6,1.23-.53,2.69.2,3.86.73,1.16,2,1.87,3.38,1.87h130.87c9.94,0,18.95-.75,27.56-2.3,30.3-5.45,54.88-19.12,73.05-40.64,13.4-15.87,23.1-35.64,28.83-58.78,7.74-31.28,4.45-63.62-9.27-91.05-17.28-34.56-45.96-53.25-66.98-62.85ZM89.27,325.39h60.99c19.32,0,37.36-6.99,50.79-19.69,11.95-11.3,19.15-25.67,21.4-42.74,1.24-9.39.72-18.42-1.45-26.88,3.74,4.41,7.07,8.86,10,13.1,1.11,5.78,7.2,42.35-11.4,66.65-10.71,13.99-27.85,21.61-50.96,22.65h-85.75l6.39-13.09ZM50.07,405.7h104.78c7.04,0,13.25-.5,19.01-1.54,34.13-6.14,54.31-26.3,63.51-63.46.01-.04.02-.08.03-.12.23-1.06,5.49-26.19,2.59-56.42.9-6.98,1.02-13.61.78-19.3,3.52,6.31,5.38,10.48,5.43,10.6.03.06.06.12.09.19,10.3,20.6,12.72,45.09,6.81,68.96-10.62,42.91-36.31,68.31-76.37,75.52-6.71,1.21-13.86,1.79-21.87,1.79H42.16l7.91-16.2ZM64.4,376.33h81.03c.2,0,.67.02,1.36.02,3.77,0,14.31-.41,26-4.43,18.79-6.46,31.72-19.26,37.54-37.07,6.06-3.82,11.28-8.55,15.61-14.22,2.71-3.55,4.96-7.3,6.81-11.15-.57,16.58-2.95,28.45-3.14,29.37-8.36,33.7-26.53,51.96-57.17,57.47-5.28.95-11.04,1.41-17.6,1.41H53.95l10.45-21.41ZM78.99,346.45h89.73c.06,0,.12,0,.18,0,11.5-.51,21.69-2.55,30.55-6.07-15.26,29.24-52.04,28.06-53.74,27.99-.06,0-.12,0-.18,0h-77.22l10.69-21.91ZM276.56,350.41c-9.02,36.44-32.92,82.23-95.56,93.5-8.14,1.46-16.69,2.17-26.15,2.17H30.36l7.91-16.2h116.58c8.49,0,16.1-.63,23.28-1.92,43.43-7.81,71.25-35.21,82.7-81.44,6.36-25.67,3.74-52.07-7.38-74.34-1.06-2.41-15.56-34.51-42.37-57.42-1.02-1.44-2.08-2.86-3.23-4.24-1.71-2.05-3.5-3.97-5.35-5.76,22.24,9.76,49.2,27.7,65.4,60.09,12.87,25.74,15.95,56.13,8.66,85.58Z"/>
  </g>
</svg>
